<svg version="1.0" xmlns="http://www.w3.org/2000/svg"
 width="199.000000pt" height="121.000000pt" viewBox="0 0 199.000000 121.000000"
 preserveAspectRatio="xMidYMid meet">

<g transform="translate(0.000000,121.000000) scale(0.100000,-0.100000)"
fill="#000000" stroke="none">
<path d="M466 1180 l-199 -5 54 -30 c52 -28 60 -29 229 -36 168 -7 226 -17
242 -42 4 -7 8 -52 8 -102 0 -84 6 -126 24 -182 6 -20 4 -23 -16 -23 -44 0
-48 15 -48 172 l0 148 -64 0 -64 0 -5 -32 c-10 -64 -8 -247 3 -289 20 -74 95
-125 164 -112 24 5 26 9 26 54 0 27 3 49 8 49 4 -1 21 -24 37 -53 l30 -52 83
-3 c56 -2 89 1 99 9 38 32 77 150 85 258 l3 34 27 -42 c21 -32 24 -43 14 -47
-26 -10 -49 -69 -42 -106 14 -77 86 -112 215 -106 l76 4 3 57 3 56 -63 3 c-52
2 -63 6 -66 22 -5 26 15 36 76 36 l52 0 0 45 0 45 -65 0 c-52 0 -67 4 -72 16
-10 26 25 44 84 44 l53 0 0 55 0 55 -89 0 c-100 0 -133 -9 -173 -48 -30 -28
-34 -22 -17 26 15 43 50 52 198 52 142 0 240 13 290 38 80 39 60 42 -277 42
-356 0 -342 3 -362 -68 -5 -20 -10 -75 -11 -122 -1 -91 -17 -171 -35 -177 -16
-5 -33 75 -38 172 -2 44 -12 100 -22 124 -23 58 -57 72 -171 69 -48 -1 -178
-5 -287 -8z"/>
<path d="M300 1063 c-75 -38 -100 -124 -60 -203 11 -22 20 -48 20 -58 0 -26
-25 -46 -50 -39 -18 5 -20 0 -20 -49 0 -50 2 -55 27 -65 76 -29 183 54 183
141 0 17 -12 52 -26 80 -29 55 -22 86 18 92 21 3 23 9 23 58 l0 55 -40 3 c-24
1 -54 -5 -75 -15z"/>
<path d="M467 1066 c-3 -8 -5 -106 -4 -218 l2 -203 55 0 55 0 3 218 2 217 -54
0 c-37 0 -56 -4 -59 -14z"/>
<path d="M1530 866 l0 -214 49 -4 c86 -6 81 -16 81 158 0 168 2 174 54 154 34
-12 33 -50 -1 -65 -19 -8 -23 -18 -23 -58 0 -41 3 -49 25 -59 24 -11 31 -29
37 -103 3 -30 4 -30 63 -30 l60 0 3 54 c4 67 -3 96 -28 121 -20 20 -20 20 0
52 42 69 17 153 -55 188 -34 16 -62 20 -153 20 l-112 0 0 -214z"/>
<path d="M769 581 c-19 -16 -51 -58 -70 -93 -31 -58 -34 -70 -34 -148 0 -78 3
-90 35 -149 105 -195 362 -229 517 -69 121 124 118 323 -6 447 -23 23 -47 41
-54 41 -10 0 -78 -101 -95 -141 -2 -4 9 -24 23 -44 82 -122 -55 -273 -176
-192 -74 49 -86 135 -29 201 l30 33 -43 72 c-23 39 -47 71 -52 71 -6 0 -26
-13 -46 -29z"/>
<path d="M328 582 c-17 -3 -18 -22 -18 -218 l0 -214 65 0 64 0 3 158 3 157 29
-2 c49 -4 63 -46 21 -65 -22 -10 -25 -17 -25 -65 l0 -53 38 0 c142 0 197 208
73 278 -30 17 -58 22 -137 25 -54 1 -107 1 -116 -1z"/>
<path d="M1340 569 c-5 -9 -9 -107 -9 -218 l0 -201 70 0 69 0 0 160 0 160 23
0 c46 0 64 -49 27 -72 -15 -10 -20 -24 -20 -59 0 -39 4 -49 25 -63 22 -14 25
-24 25 -71 l0 -55 65 0 65 0 0 73 c0 61 -3 77 -20 92 -24 22 -25 42 -4 66 28
31 29 89 2 129 -38 57 -86 75 -206 76 -88 0 -105 -2 -112 -17z"/>
<path d="M1885 580 c-105 -22 -145 -114 -97 -224 26 -58 26 -60 6 -80 -10 -10
-24 -14 -40 -10 -23 6 -24 4 -24 -44 0 -63 14 -76 79 -70 59 6 94 30 121 84
26 53 25 71 -6 129 -31 59 -26 95 11 95 24 0 25 3 25 59 0 53 -2 59 -22 63
-13 2 -36 1 -53 -2z"/>
<path d="M133 560 c-69 -41 -87 -125 -45 -206 12 -24 19 -50 15 -63 -5 -21 -9
-23 -48 -25 -16 -1 -21 -9 -23 -44 -4 -55 10 -72 60 -72 57 0 114 35 138 85
26 53 25 67 -5 128 -32 63 -30 91 8 95 26 3 27 5 27 63 l0 59 -47 0 c-30 0
-60 -7 -80 -20z"/>
</g>
</svg>
